<?xml version="1.0" encoding="utf-8"?>
<!-- Generator: Adobe Illustrator 26.0.3, SVG Export Plug-In . SVG Version: 6.00 Build 0)  -->
<svg version="1.1" id="Layer_1" xmlns="http://www.w3.org/2000/svg" xmlns:xlink="http://www.w3.org/1999/xlink" x="0px" y="0px"
	 viewBox="0 0 403.9 398" style="enable-background:new 0 0 403.9 398;" xml:space="preserve">
<g>
	<g>
		<path d="M170.3,14l51.4,89l-51.4,89H67.5l-51.4-89l51.4-89H170.3 M178.4,0H59.5L0,103l59.5,103h118.9l59.5-103L178.4,0L178.4,0z"
			/>
	</g>
	<g>
		<path d="M170.3,206l51.4,89l-51.4,89H67.5l-51.4-89l51.4-89H170.3 M178.4,192H59.5L0,295l59.5,103h118.9l59.5-103L178.4,192
			L178.4,192z"/>
	</g>
	<g>
		<path d="M336.3,110l51.4,89l-51.4,89H233.5l-51.4-89l51.4-89H336.3 M344.4,96H225.5L166,199l59.5,103h118.9l59.5-103L344.4,96
			L344.4,96z"/>
	</g>
</g>
</svg>
